<svg width="65" height="72" viewBox="0 0 65 72" fill="none" xmlns="http://www.w3.org/2000/svg">
<g clip-path="url(#clip0_23_16)">
<path fill-rule="evenodd" clip-rule="evenodd" d="M64.222 25.7727H47.1577C46.9115 24.2116 46.4685 22.7912 45.8285 21.5114C45.124 20.1023 44.1922 18.8977 43.0331 17.8977C41.874 16.8977 40.499 16.1364 38.9081 15.6136C37.3399 15.0682 35.6013 14.7955 33.6922 14.7955C30.3058 14.7955 27.3854 15.625 24.9308 17.2841C22.499 18.9432 20.624 21.3409 19.3058 24.4773C18.0104 27.6136 17.3626 31.4091 17.3626 35.8636C17.3626 40.5 18.0217 44.3864 19.3399 47.5227C20.6808 50.6364 22.5558 52.9886 24.9649 54.5795C27.3967 56.1477 30.2717 56.9318 33.5899 56.9318C35.4535 56.9318 37.1467 56.6932 38.6695 56.2159C40.2149 55.7386 41.5672 55.0455 42.7263 54.1364C43.9081 53.2045 44.874 52.0795 45.624 50.7614C46.3967 49.4205 46.9308 47.9091 47.2263 46.2273L64.2717 46.3295C63.9763 49.4205 63.0785 52.4659 61.5785 55.4659C60.1013 58.4659 58.0672 61.2045 55.4763 63.6818C52.8854 66.1364 49.7263 68.0909 45.999 69.5455C42.2945 71 38.0445 71.7273 33.249 71.7273C26.9308 71.7273 21.2717 70.3409 16.2717 67.5682C11.2945 64.7727 7.36264 60.7045 4.47627 55.3636C1.58991 50.0227 0.146729 43.5227 0.146729 35.8636C0.146729 28.1818 1.61264 21.6705 4.54446 16.3295C7.47627 10.9886 11.4422 6.93182 16.4422 4.15909C21.4422 1.38636 27.0445 0 33.249 0C37.4763 0 41.3854 0.59091 44.9763 1.77273C48.5672 2.93182 51.7263 4.63636 54.4535 6.88636C57.1808 9.11364 59.3967 11.8523 61.1013 15.1023C62.7407 18.2281 63.7809 21.7849 64.222 25.7727Z" fill="#321E43"/>
<path d="M33.035 36L9.03492 9.5C-1.46546 20.5 -4.46484 47.5 9.03475 62L33.035 36Z" fill="#7D3BB7"/>
</g>
<defs>
<clipPath id="clip0_23_16">
<rect width="65" height="72" fill="white"/>
</clipPath>
</defs>
</svg>
