<svg width="180" height="37" viewBox="0 0 180 37" fill="none" xmlns="http://www.w3.org/2000/svg">
<g clip-path="url(#clip0_23_12)">
<path d="M142.76 35.9043V10.8366H150.74V35.9043H142.76ZM146.758 7.91526C145.637 7.91526 144.675 7.54535 143.869 6.80549C143.064 6.05475 142.661 5.15174 142.661 4.09635C142.661 3.05186 143.064 2.1597 143.869 1.41985C144.675 0.669124 145.637 0.293762 146.758 0.293762C147.89 0.293762 148.852 0.669124 149.647 1.41985C150.452 2.1597 150.854 3.05186 150.854 4.09635C150.854 5.15174 150.452 6.05475 149.647 6.80549C148.852 7.54535 147.89 7.91526 146.758 7.91526Z" fill="#E1E1E1"/>
<path d="M122.957 35.9043V10.8366H130.709V15.4062H130.97C131.427 13.7524 132.172 12.523 133.206 11.7179C134.239 10.9018 135.441 10.4939 136.812 10.4939C137.183 10.4939 137.563 10.5211 137.955 10.5754C138.347 10.619 138.711 10.6897 139.048 10.7876V17.7236C138.668 17.5931 138.167 17.4897 137.547 17.4136C136.937 17.3374 136.394 17.2993 135.915 17.2993C134.968 17.2993 134.114 17.5115 133.353 17.9358C132.602 18.3492 132.009 18.9314 131.574 19.6821C131.149 20.4219 130.937 21.2923 130.937 22.2933V35.9043H122.957Z" fill="#E1E1E1"/>
<path d="M106.524 36.3775C103.902 36.3775 101.639 35.8607 99.7349 34.8271C97.8415 33.7826 96.3838 32.2975 95.3608 30.3717C94.3492 28.4351 93.8432 26.1339 93.8432 23.4683C93.8432 20.8789 94.3545 18.6158 95.377 16.6792C96.4001 14.7316 97.8415 13.2193 99.7018 12.1421C101.563 11.0542 103.755 10.5101 106.279 10.5101C108.063 10.5101 109.695 10.7876 111.175 11.3425C112.655 11.8974 113.933 12.7188 115.01 13.8068C116.088 14.8948 116.925 16.2385 117.524 17.8379C118.122 19.4264 118.421 21.2488 118.421 23.3051V25.2962H96.6337V20.6613H110.995C110.985 19.8126 110.783 19.0564 110.392 18.3928C110 17.7291 109.462 17.2123 108.776 16.8424C108.101 16.4616 107.324 16.2711 106.442 16.2711C105.55 16.2711 104.75 16.4724 104.043 16.875C103.336 17.2667 102.776 17.8053 102.362 18.4907C101.949 19.1653 101.731 19.9323 101.71 20.7918V25.5083C101.71 26.5311 101.911 27.4287 102.313 28.2012C102.716 28.9628 103.287 29.5557 104.027 29.9801C104.767 30.4044 105.648 30.6165 106.671 30.6165C107.378 30.6165 108.02 30.5186 108.596 30.3228C109.173 30.1269 109.668 29.8386 110.081 29.4578C110.495 29.077 110.805 28.6092 111.012 28.0543L118.339 28.2665C118.035 29.9093 117.366 31.3401 116.332 32.5586C115.31 33.7663 113.966 34.7074 112.301 35.382C110.636 36.0457 108.711 36.3775 106.524 36.3775Z" fill="#E1E1E1"/>
<path d="M119.441 31.5957L110.824 28.2447L109.867 26.8085L119.681 27.0479L119.441 31.5957Z" fill="#496989"/>
<path d="M74.1054 36.2633C72.2556 36.2633 70.5748 35.7846 69.0625 34.8271C67.5503 33.8697 66.3424 32.4335 65.4396 30.5186C64.5362 28.6037 64.0848 26.2264 64.0848 23.3867C64.0848 20.4382 64.5525 18.012 65.4884 16.1079C66.4238 14.204 67.6479 12.795 69.1602 11.881C70.6835 10.9671 72.3212 10.5101 74.0729 10.5101C75.3894 10.5101 76.5153 10.7386 77.4507 11.1956C78.3866 11.6417 79.1593 12.2183 79.7682 12.9255C80.3777 13.6327 80.8401 14.3672 81.1556 15.1288H81.3188V2.48065H89.2991V35.9042H81.4002V31.8406H81.1556C80.8186 32.613 80.3398 33.3366 79.7194 34.0111C79.0995 34.6857 78.3215 35.2297 77.3856 35.6431C76.4607 36.0566 75.3673 36.2633 74.1054 36.2633ZM76.8796 30.0453C77.8481 30.0453 78.6748 29.7733 79.3604 29.2293C80.0459 28.6744 80.5734 27.8965 80.9435 26.8955C81.3136 25.8946 81.4983 24.7195 81.4983 23.3704C81.4983 21.9995 81.3136 20.819 80.9435 19.829C80.5845 18.8389 80.0569 18.0773 79.3604 17.5441C78.6748 17.011 77.8481 16.7444 76.8796 16.7444C75.8896 16.7444 75.0519 17.0165 74.3663 17.5604C73.6808 18.1045 73.159 18.8715 72.7999 19.8616C72.4514 20.8517 72.2776 22.0213 72.2776 23.3704C72.2776 24.7195 72.4572 25.8946 72.8162 26.8955C73.1753 27.8965 73.6918 28.6744 74.3663 29.2293C75.0519 29.7733 75.8896 30.0453 76.8796 30.0453Z" fill="#E1E1E1"/>
<path d="M47.7376 36.3775C45.1046 36.3775 42.8415 35.839 40.9484 34.7618C39.0661 33.6738 37.6136 32.1615 36.5909 30.2249C35.5791 28.2773 35.0732 26.0197 35.0732 23.452C35.0732 20.8734 35.5791 18.6158 36.5909 16.6792C37.6136 14.7316 39.0661 13.2193 40.9484 12.1421C42.8415 11.0542 45.1046 10.5101 47.7376 10.5101C50.3703 10.5101 52.628 11.0542 54.5103 12.1421C56.4037 13.2193 57.8561 14.7316 58.8677 16.6792C59.8907 18.6158 60.402 20.8734 60.402 23.452C60.402 26.0197 59.8907 28.2773 58.8677 30.2249C57.8561 32.1615 56.4037 33.6738 54.5103 34.7618C52.628 35.839 50.3703 36.3775 47.7376 36.3775ZM47.7865 30.3554C48.7441 30.3554 49.5546 30.0617 50.2181 29.4741C50.8821 28.8866 51.3876 28.0706 51.7361 27.0261C52.0952 25.9816 52.2747 24.7739 52.2747 23.4031C52.2747 22.0104 52.0952 20.7918 51.7361 19.7473C51.3876 18.7029 50.8821 17.8868 50.2181 17.2993C49.5546 16.7118 48.7441 16.4181 47.7865 16.4181C46.7965 16.4181 45.9587 16.7118 45.2732 17.2993C44.5986 17.8868 44.0819 18.7029 43.7228 19.7473C43.3746 20.7918 43.2006 22.0104 43.2006 23.4031C43.2006 24.7739 43.3746 25.9816 43.7228 27.0261C44.0819 28.0706 44.5986 28.8866 45.2732 29.4741C45.9587 30.0617 46.7965 30.3554 47.7865 30.3554Z" fill="#E1E1E1"/>
<path fill-rule="evenodd" clip-rule="evenodd" d="M30.9301 14.3617H22.761C22.6432 13.6144 22.431 12.9344 22.1247 12.3217C21.7874 11.6472 21.3413 11.0705 20.7864 10.5918C20.2316 10.113 19.5733 9.74859 18.8117 9.49831C18.061 9.23722 17.2286 9.10662 16.3147 9.10662C14.6936 9.10662 13.2955 9.50377 12.1205 10.298C10.9563 11.0923 10.0587 12.2401 9.42766 13.7416C8.80747 15.243 8.4974 17.06 8.4974 19.1925C8.4974 21.412 8.81293 23.2725 9.44398 24.7739C10.0859 26.2645 10.9835 27.3906 12.1368 28.1522C13.301 28.9029 14.6773 29.2783 16.2658 29.2783C17.1579 29.2783 17.9685 29.1641 18.6975 28.9356C19.4373 28.7071 20.0847 28.3753 20.6396 27.9401C21.2053 27.494 21.6678 26.9554 22.0268 26.3244C22.3967 25.6824 22.6524 24.9589 22.7938 24.1538L30.9539 24.2027C30.8124 25.6825 30.3827 27.1404 29.6646 28.5765C28.9574 30.0127 27.9836 31.3237 26.7433 32.5097C25.5029 33.6848 23.9906 34.6204 22.2063 35.3168C20.4328 36.0131 18.3983 36.3613 16.1026 36.3613C13.0779 36.3613 10.3688 35.6976 7.97516 34.3702C5.59241 33.0319 3.71016 31.0844 2.32839 28.5276C0.946621 25.9708 0.255737 22.8591 0.255737 19.1925C0.255737 15.515 0.957503 12.3979 2.36103 9.84103C3.76456 7.28422 5.66312 5.34213 8.05674 4.01477C10.4504 2.6874 13.1323 2.02371 16.1026 2.02371C18.1263 2.02371 19.9976 2.30659 21.7167 2.87236C23.4357 3.42724 24.9481 4.24325 26.2537 5.3204C27.5593 6.38661 28.6201 7.69769 29.4361 9.25354C30.2209 10.7499 30.7189 12.4527 30.9301 14.3617Z" fill="#E1E1E1"/>
<path d="M163.081 10.8366L167.21 19.0946L171.486 10.8366H179.532L171.813 22.2606L179.793 35.9043H171.813L167.21 27.581L162.722 35.9043H154.628L162.527 24.1755L154.987 10.8366H163.081Z" fill="#E1E1E1"/>
<path d="M154.628 35.9043L171.526 10.7713H179.583L162.731 35.9043H154.628Z" fill="#321E43"/>
</g>
<defs>
<clipPath id="clip0_23_12">
<rect width="180" height="36.383" fill="white"/>
</clipPath>
</defs>
</svg>
